<?xml version="1.0" encoding="utf-8"?>
<!-- Generator: Adobe Illustrator 16.0.3, SVG Export Plug-In . SVG Version: 6.00 Build 0)  -->
<!DOCTYPE svg PUBLIC "-//W3C//DTD SVG 1.1//EN" "http://www.w3.org/Graphics/SVG/1.1/DTD/svg11.dtd">
<svg version="1.1" id="Capa_1" xmlns="http://www.w3.org/2000/svg" xmlns:xlink="http://www.w3.org/1999/xlink" x="0px" y="0px"
	 width="818.416px" height="297.111px" viewBox="0 0 818.416 297.111" enable-background="new 0 0 818.416 297.111"
	 xml:space="preserve">
<g>
	<defs>
		<rect id="SVGID_1_" width="818.416" height="297.111"/>
	</defs>
	<clipPath id="SVGID_2_">
		<use xlink:href="#SVGID_1_"  overflow="visible"/>
	</clipPath>
	<path clip-path="url(#SVGID_2_)" fill="#D0C6BA" d="M91.941,106.712c0.325-1.446,0.6-2.67,0.868-3.866
		c0.14-0.625,0.278-1.24,0.422-1.878h66.522c0.143,0.638,0.281,1.253,0.421,1.878c0.269,1.196,0.544,2.42,0.868,3.866h41.712
		l-19.033-29.959c-0.905-1.501-4.03-2.312-6.144-2.338H75.406c-2.113,0.026-5.239,0.837-6.143,2.338L50.23,106.712H91.941z"/>
	<path clip-path="url(#SVGID_2_)" fill="#D0C6BA" d="M213.092,132.204c0.132-4.353-3.396-8.152-7.697-8.29
		c-0.156-0.003-0.312-0.002-0.467,0.003c-0.312-0.03-0.628-0.044-0.947-0.034c-4.399,0.13-7.743,3.776-7.627,8.315
		c0.115,4.494,3.717,7.965,8.087,7.796c0.075-0.004,0.15-0.01,0.225-0.015c0.078,0.005,0.156,0.013,0.236,0.016
		C209.124,140.161,212.961,136.511,213.092,132.204"/>
	<path clip-path="url(#SVGID_2_)" fill="#D0C6BA" d="M185.999,123.937c-0.175-0.006-0.349-0.003-0.522,0.003
		c-0.221-0.017-0.442-0.026-0.665-0.023c-4.31,0.064-7.879,3.784-7.81,8.138c0.071,4.412,3.689,8.025,7.984,7.972
		c0.164-0.002,0.327-0.01,0.49-0.024c0.079,0.004,0.157,0.009,0.237,0.01c4.237,0.05,8.036-3.648,8.119-7.906
		C193.913,127.856,190.298,124.085,185.999,123.937"/>
	<path clip-path="url(#SVGID_2_)" fill="#D0C6BA" d="M75.982,132.055c0.069-4.354-3.5-8.074-7.809-8.138
		c-0.223-0.004-0.445,0.006-0.665,0.023c-0.173-0.007-0.347-0.01-0.523-0.003c-4.3,0.148-7.915,3.919-7.832,8.17
		c0.082,4.258,3.881,7.956,8.118,7.906c0.08-0.001,0.159-0.006,0.238-0.01c0.162,0.013,0.325,0.022,0.49,0.024
		C72.293,140.081,75.912,136.467,75.982,132.055"/>
	<path clip-path="url(#SVGID_2_)" fill="#D0C6BA" d="M49.003,123.883c-0.319-0.01-0.635,0.004-0.947,0.034
		c-0.155-0.006-0.311-0.007-0.467-0.003c-4.301,0.137-7.829,3.937-7.697,8.29c0.131,4.307,3.968,7.957,8.191,7.79
		c0.079-0.003,0.157-0.01,0.235-0.015c0.075,0.005,0.15,0.011,0.225,0.014c4.371,0.17,7.972-3.301,8.087-7.796
		C56.746,127.659,53.402,124.012,49.003,123.883"/>
	<path clip-path="url(#SVGID_2_)" fill="#E79A32" d="M32.1,197.139c-0.571,0.022-1.155,0.073-1.721,0.072
		c-0.297,0.015-0.592,0.021-0.881,0.013c4.642,6.506,9.627,12.937,14.799,19.209l19.392-19.294H32.1z"/>
	<path clip-path="url(#SVGID_2_)" fill="#0B313F" d="M63.69,197.139l-19.393,19.294c6.684,8.108,13.678,15.953,20.645,23.361
		l42.873-42.655H63.69z"/>
	<path clip-path="url(#SVGID_2_)" fill="#E79A32" d="M107.814,197.139l-42.872,42.655c7.474,7.946,14.914,15.386,21.906,22.105
		l65.091-64.761H107.814z"/>
	<path clip-path="url(#SVGID_2_)" fill="#0B313F" d="M196.063,197.139h-44.125L86.849,261.9
		c8.583,8.248,16.486,15.406,22.942,21.076L196.063,197.139z"/>
	<path clip-path="url(#SVGID_2_)" fill="#E79A32" d="M126.492,297.111c0,0,59.616-47.503,96.993-99.887
		c-0.289,0.009-0.583,0.002-0.881-0.012c-0.565,0.001-1.149-0.051-1.72-0.073h-24.82l-86.274,85.837
		C119.926,291.878,126.492,297.111,126.492,297.111"/>
	<path clip-path="url(#SVGID_2_)" fill="#E79A32" d="M185.194,189.292c-0.182-2.4-0.331-4.361-0.51-6.726h-46.348
		c-3.948,0.063-7.896,0.126-11.844,0.188c-3.948-0.062-7.896-0.125-11.844-0.188H68.299c-0.179,2.364-0.327,4.325-0.509,6.726
		H185.194z"/>
	<path clip-path="url(#SVGID_2_)" fill="#D0C6BA" d="M252.984,126.475c0-69.848-56.661-126.476-126.492-126.476
		C56.66-0.001,0,56.627,0,126.475c0,20.004,10.384,42.545,25.191,64.53c0.594-1.02,1.687-1.713,2.952-1.713h2.321
		c0.603-13.194,1.187-25.948,1.77-38.701c0.235-0.026,0.47-0.053,0.705-0.08c0.446-0.051,0.893-0.101,1.339-0.152l2.577,12.561
		c0.921,3.298,2.438,5.509,5.153,6.771c0.291,0.046,0.598,0.073,0.925,0.079c16.159,0.342,32.33,0.132,48.808,0.129
		c0.15-0.21,0.295-0.436,0.431-0.67c0.1-0.795,0.224-1.732,0.292-2.677c0.314-4.407,0.51-6.279,2.157-7.099
		c1.09-1.348,3.193-1.398,7.794-1.373c8.026,0.044,16.051,0.138,24.077,0.256c8.025-0.118,16.051-0.212,24.077-0.256
		c4.601-0.025,6.704,0.025,7.794,1.373c1.647,0.819,1.842,2.691,2.157,7.099c0.068,0.944,0.192,1.882,0.292,2.677
		c0.136,0.234,0.281,0.46,0.431,0.67c16.478,0.003,32.649,0.213,48.808-0.129c0.327-0.006,0.634-0.033,0.925-0.079
		c2.715-1.263,4.233-3.474,5.153-6.771l2.576-12.561c0.447,0.052,0.893,0.102,1.34,0.152c0.235,0.027,0.47,0.054,0.705,0.08
		c0.583,12.753,1.167,25.507,1.77,38.701h2.321c1.265,0,2.358,0.693,2.951,1.713C242.6,169.02,252.984,146.479,252.984,126.475
		 M24.724,95.205c0.137-4.859,3.864-5.174,7.445-4.994c1.42,0.073,2.852,0.16,4.277,0.3c0.883,0.079,1.76,0.186,2.626,0.33
		c1.13,0.177,2.247,0.405,3.34,0.702c1.136,0.308,2.178,0.964,3.277,1.748c1.04,0.599,2.121,1.258,3.303,1.907
		c0.213,0.117,0.428,0.234,0.647,0.349c4.835-7.298,10.391-15.57,15.813-23.928c0.409-0.631,0.843-1.183,1.304-1.668
		c1.893-1.995,4.254-2.812,7.345-2.804h104.782c3.09-0.008,5.452,0.809,7.345,2.804c0.461,0.485,0.895,1.037,1.303,1.668
		c5.423,8.358,10.978,16.63,15.813,23.928c0.22-0.115,0.435-0.232,0.648-0.349c1.181-0.649,2.263-1.308,3.303-1.907
		c1.099-0.784,2.141-1.44,3.276-1.748c1.094-0.297,2.21-0.525,3.34-0.702c0.867-0.144,1.744-0.251,2.627-0.33
		c1.425-0.14,2.857-0.227,4.278-0.3c3.58-0.18,7.307,0.135,7.444,4.994c0.123,4.344-2.199,6.784-6.658,6.841
		c-0.821,0.011-1.642,0.017-2.469,0.022c-3.447,0.21-6.965,0.289-10.684,0.447c-0.278,0.012-0.553,0.022-0.833,0.035
		c1.902,3.725,3.75,7.342,5.851,11.456H39.516c2.102-4.114,3.949-7.731,5.852-11.456c-0.28-0.013-0.555-0.023-0.833-0.035
		c-3.719-0.158-7.237-0.237-10.685-0.447c-0.826-0.005-1.648-0.011-2.468-0.022C26.923,101.989,24.6,99.549,24.724,95.205
		 M210.819,142.85c-6.408,1.219-12.961,1.848-19.48,2.283c-21.614,1.441-43.23,2.561-64.847,2.84
		c-21.617-0.279-43.234-1.399-64.847-2.84c-6.519-0.435-13.072-1.064-19.48-2.283c-6.353-1.207-8.766-6.312-7.752-14.616
		c0.545-4.454,0.89-6.55,2.562-7.533c1.288-0.759,3.364-0.859,6.926-0.871c7.732-0.024,15.464-0.038,23.196-0.044
		c6.961-0.087,13.923-0.15,20.884-0.204c12.364-0.096,24.73-0.019,37.095-0.019h2.832c12.365,0,24.731-0.077,37.095,0.019
		c6.962,0.054,13.922,0.117,20.883,0.204c7.732,0.006,15.464,0.02,23.197,0.044c3.562,0.012,5.637,0.112,6.925,0.871
		c1.672,0.983,2.018,3.079,2.562,7.533C219.585,136.538,217.172,141.643,210.819,142.85"/>
	<path clip-path="url(#SVGID_2_)" fill="#D0C6BA" d="M327.03,77.317c0-13.466-9.645-21.472-25.658-21.472h-22.838v63.69h4.641
		V98.699h18.197C317.386,98.699,327.03,90.692,327.03,77.317 M283.175,94.514V60.03h18.197c13.648,0,20.927,6.278,20.927,17.287
		c0,10.919-7.279,17.197-20.927,17.197H283.175z"/>
	<path clip-path="url(#SVGID_2_)" fill="#D0C6BA" d="M328.848,119.534h5.004l8.097-17.924h36.941l8.188,17.924h5.005l-29.297-63.689
		h-4.64L328.848,119.534z M360.42,60.94l16.741,36.758h-33.392L360.42,60.94z"/>
	<path clip-path="url(#SVGID_2_)" fill="#D0C6BA" d="M408.273,98.698h18.196c2.185,0,4.187-0.181,6.188-0.454l15.195,21.29h5.276
		l-15.922-22.291c9.462-2.82,14.921-9.827,14.921-19.926c0-13.466-9.645-21.472-25.658-21.472h-22.836v63.689h4.64V98.698z
		 M408.273,60.03h18.196c13.648,0,20.928,6.278,20.928,17.287c0,10.919-7.279,17.288-20.928,17.288h-18.196V60.03z"/>
	<path clip-path="url(#SVGID_2_)" fill="#D0C6BA" d="M495.978,119.989c7.916,8.28,14.104,11.647,21.11,11.647
		c6.005,0,11.191-2.457,15.011-7.188l-2.456-2.822c-3.458,4.095-7.551,6.097-12.555,6.097c-4.823,0-9.827-2.639-15.104-8.189
		c15.923-2.547,27.296-15.285,27.296-31.845c0-18.561-14.194-32.3-33.119-32.3c-19.017,0-33.118,13.83-33.118,32.3
		C463.043,106.068,477.054,119.898,495.978,119.989 M496.161,59.666c16.194,0,28.388,12.101,28.388,28.023
		c0,15.923-12.193,28.024-28.388,28.024c-16.286,0-28.479-12.101-28.479-28.024C467.683,71.767,479.875,59.666,496.161,59.666"/>
	<path clip-path="url(#SVGID_2_)" fill="#D0C6BA" d="M595.878,92.511V55.844h-4.642v36.486c0,15.922-7.55,23.383-20.835,23.383
		c-13.282,0-20.925-7.461-20.925-23.383V55.844h-4.641v36.667c0,18.197,9.645,27.478,25.476,27.478S595.878,110.708,595.878,92.511"
		/>
	<polygon clip-path="url(#SVGID_2_)" fill="#D0C6BA" points="661.475,115.349 622.168,115.349 622.168,89.236 656.107,89.236 
		656.107,85.142 622.168,85.142 622.168,60.03 660.11,60.03 660.11,55.845 617.53,55.845 617.53,119.534 661.475,119.534 	"/>
	<path clip-path="url(#SVGID_2_)" fill="#D0C6BA" d="M705.054,119.989c18.925,0,33.119-13.739,33.119-32.3s-14.194-32.3-33.119-32.3
		c-19.018,0-33.118,13.83-33.118,32.3C671.936,106.16,686.036,119.989,705.054,119.989 M705.054,59.666
		c16.194,0,28.388,11.919,28.388,28.023s-12.193,28.024-28.388,28.024c-16.286,0-28.479-11.92-28.479-28.024
		S688.768,59.666,705.054,59.666"/>
	<path clip-path="url(#SVGID_2_)" fill="#D0C6BA" d="M770.924,115.895c-8.554,0-16.651-3.458-21.02-8.007l-2.091,3.458
		c4.64,5.095,13.738,8.643,23.2,8.643c15.741,0,22.93-7.825,22.93-16.832c0-23.111-39.762-11.828-39.762-30.935
		c0-7.006,5.551-12.738,17.926-12.738c5.73,0,12.191,1.728,17.468,5.368l1.729-3.73c-4.912-3.549-12.192-5.733-19.196-5.733
		c-15.652,0-22.564,7.916-22.564,16.924c0,23.474,39.76,12.01,39.76,31.117C789.303,110.344,783.66,115.895,770.924,115.895"/>
	<path clip-path="url(#SVGID_2_)" fill="#E79A32" d="M322.937,164.229l13.557-12.101c-6.278-8.189-16.105-12.738-28.569-12.738
		c-20.472,0-35.485,13.739-35.485,33.301s15.013,33.301,35.485,33.301c12.464,0,22.291-4.55,28.569-12.738l-13.557-12.101
		c-3.73,4.731-8.189,7.46-13.92,7.46c-8.918,0-14.922-6.187-14.922-15.922c0-9.734,6.004-15.922,14.922-15.922
		C314.748,156.769,319.207,159.499,322.937,164.229"/>
	<path clip-path="url(#SVGID_2_)" fill="#E79A32" d="M374.704,139.39c-20.745,0-35.939,14.012-35.939,33.301
		s15.194,33.301,35.939,33.301c20.745,0,35.938-14.012,35.938-33.301S395.449,139.39,374.704,139.39 M374.704,188.613
		c-7.916,0-14.284-6.004-14.284-15.922s6.368-15.922,14.284-15.922s14.284,6.004,14.284,15.922S382.62,188.613,374.704,188.613"/>
	<path clip-path="url(#SVGID_2_)" fill="#E79A32" d="M452.492,156.769c5.731,0,10.189,2.729,13.921,7.46l13.557-12.101
		c-6.279-8.189-16.104-12.738-28.569-12.738c-20.472,0-35.484,13.739-35.484,33.301s15.013,33.301,35.484,33.301
		c12.465,0,22.29-4.55,28.569-12.738l-13.557-12.101c-3.731,4.731-8.189,7.46-13.921,7.46c-8.917,0-14.921-6.187-14.921-15.922
		C437.571,162.957,443.575,156.769,452.492,156.769"/>
	<polygon clip-path="url(#SVGID_2_)" fill="#E79A32" points="527.46,163.411 507.625,163.411 507.625,140.847 486.151,140.847 
		486.151,204.536 507.625,204.536 507.625,181.061 527.46,181.061 527.46,204.536 548.933,204.536 548.933,140.847 527.46,140.847 	
		"/>
	<path clip-path="url(#SVGID_2_)" fill="#E79A32" d="M580.227,140.846l-27.841,63.689h21.836l4.276-11.101H602.7l4.275,11.101
		h22.201l-27.841-63.689H580.227z M584.412,177.968l6.187-16.014l6.188,16.014H584.412z"/>
	<polygon clip-path="url(#SVGID_2_)" fill="#E79A32" points="654.104,140.846 632.63,140.846 632.63,204.536 682.854,204.536 
		682.854,187.885 654.104,187.885 	"/>
	<path clip-path="url(#SVGID_2_)" fill="#E79A32" d="M721.248,139.39c-20.745,0-35.939,14.012-35.939,33.301
		s15.194,33.301,35.939,33.301c20.744,0,35.938-14.012,35.938-33.301S741.992,139.39,721.248,139.39 M721.248,188.613
		c-7.916,0-14.284-6.004-14.284-15.922s6.368-15.922,14.284-15.922s14.284,6.004,14.284,15.922S729.164,188.613,721.248,188.613"/>
	<path clip-path="url(#SVGID_2_)" fill="#E79A32" d="M783.204,159.771c0-2.184,2.003-4.004,8.28-4.004
		c5.55,0,11.464,1.547,17.741,4.732l6.461-15.56c-6.643-3.73-15.468-5.55-24.02-5.55c-19.745,0-29.662,9.645-29.662,21.473
		c0,23.747,35.212,17.287,35.212,25.294c0,2.184-2.184,3.457-8.281,3.457c-7.004,0-15.011-2.274-21.017-5.821l-6.915,15.648
		c6.369,3.912,17.105,6.551,27.752,6.551c19.743,0,29.66-9.826,29.66-21.473C818.416,161.044,783.204,167.415,783.204,159.771"/>
</g>
</svg>
